# xmcd CD database file
#
# Track frame offsets:
#	150
#	12687
#	23047
#	34827
#	53860
#	65722
#	81327
#	94247
#	112727
#	125575
#	144072
#	155232
#	173267
#	191145
#	209315
#	226380
#
# Disc length: 3200 seconds
#
# Revision: 0
# Processed by: cddbd v1.5.1PL0 Copyright (c) Steve Scherf et al.
# Submitted via: CDex 1.51
#
DISCID=d90c7e10
DTITLE=Jonny Hill - Ich Fahr' meine Tour
DYEAR=1998
DGENRE=Country
TTITLE0=500 Meilen Von Zuhaus
TTITLE1=Heute Nacht Da Brauch Ich Dich
TTITLE2=Ja Die Tuer Steht Immer Offen
TTITLE3=Kinder, Alte Hunde Und Junger Herber Wein
TTITLE4=Mehr Hinterm Lenkrad Als Zu Haus
TTITLE5=Mein Leben Mit Dir
TTITLE6=Es Sind Nur Erinnerungen
TTITLE7=Der Haus-Song
TTITLE8=Mein Lied Fuer Dich
TTITLE9=Wieder Mal Auf Tournee
TTITLE10=Ich Fahr' Meine Tour
TTITLE11=Bis Der Letzte Fluss Versiegt
TTITLE12=Der Alte Fluss
TTITLE13=Sylvia's Mutter Sagt
TTITLE14=Wo Der Mond Steht
TTITLE15=Ich Loesche Das Licht Aus
EXTD=YEAR: 1998
EXTT0=
EXTT1=
EXTT2=
EXTT3=
EXTT4=
EXTT5=
EXTT6=
EXTT7=
EXTT8=
EXTT9=
EXTT10=
EXTT11=
EXTT12=
EXTT13=
EXTT14=
EXTT15=
PLAYORDER=
